<?xml version="1.0" encoding="UTF-8"?>
<svg id="Layer_2" data-name="Layer 2" xmlns="http://www.w3.org/2000/svg" viewBox="0 0 442.19 221.6">
  <defs>
    <style>
      .cls-1 {
        fill: #fff;
      }

      .cls-2 {
        fill: #c8fe00;
      }
    </style>
  </defs>
  <g id="Layer_1-2" data-name="Layer 1">
    <path class="cls-1" d="M422.27,201.95c-11.88,12.87-32.87,12.26-47.01,3.56-13.18-6.98-10.03-16.99-4.43-28.33-23.46,33.42-88.55,22.3-64.73-25.63-8.4,3.63-17.91,2.9-25.5-2.25-9.97,8.99-26.83,16.6-38.83,6.65-5.17,9.1-15.89,12.38-25.59,9.89-4.64,4.13-10.3,6.77-16.49,7.59-4.71,8.58-8.29,18.28-13.16,26.71-15.26,27.42-59.69,25.67-68.01-6.38-9.05,9.29-24.97,9.65-32.88-1.05-40.15,60.22-118.76,18.38-70.39-52.77,3.09-5.38,4.86-6.68,3.19-12.84-.6-20.3,12.3-39.65,21.81-56.67,17.05-25.21,50.89-28.53,78.56-23.51,3.91.36,5.37-1.97,8.55-3.56,10.97-5.48,27.18-3.81,30,10.07l.77.27c9.14-10.35,27.21-29.39,41.18-16.07,10.59,10.91-5.27,25.57-6.22,35.22,4.71-2.89,10.14-4.1,15.5-4.44,9.95-1.58,19.72-8.25,30-5.86.79.18,2.77,1.33,3.3,1.11.76-1.01,2.52-1.78,3.06-2.91,18.39-58.04,53.03-76.63,108.41-46.44,23.69-22.89,74.01-7.21,62.12,30.07,22.21,1.9,19.75,16.95,10.68,32.14-5.79,12.03-12.27,23.71-19.32,35.04,30.1,12.64,46.83,40.8,26.25,70.29-3.17,6.55-5.89,14.76-10.83,20.11ZM316.17,144.08c-18.6,31.41-5.95,55.82,31.36,43.59,11.83-3.8,18.05-14.52,25.47-23.15,15.28,11.92-12.08,25.31,4.33,35.3,20.18,12.78,42.7,5.42,49.21-18.06,21.66-32.58,4.51-54.14-27.97-67.35,6.32-11.57,13.65-22.57,19.31-34.52,6.59-13.4,18.91-29.3-5.48-29.84-1.19-.29-6.87.93-5.98-1.03,18.32-29.08-18.95-50.05-43.07-34.54-9.33,9.04-12.93,5.36-23.15.06-48.85-21.42-70.54-2.19-88.21,43.41-.53,1.51-1.46,6.06-2.06,6.94-3.35,1.94-5.75,5.19-7.39,8.72-6.21-11.6-19.12-2.25-28.4-.17-17.76-.24-32.07,13.53-40.35,28.14,2.51-14.72,14.19-30.51,20.16-45.22,4.3-7.11,4.1-18.39-6.82-17.18-21.36,6.8-35.92,33.58-49.2,50.49,2.84-9.62,10.35-18.96,13.08-28.6,4.28-13.69-10.03-17.47-20.3-12.79-5.85,4.26-10.82,5.73-17.93,3.62-34.65-5.43-65.26,6.14-77.65,40.62-6.77,12.82-13.41,26.45-9.76,41.24-3.78,6.59-7.41,13.99-10.6,21-37.2,64.06,49.36,84.02,71.63,24.25,1.68,1.01,1.22,4.57,2.19,6.6,6.93,17.1,27.09,7.78,32.25-5.56,1.52-1.94,1.33,2.2,1.44,2.93,2.85,18.86,13.78,33.34,34.77,30.43,23.7-3.29,27.29-24.51,36.96-42.01,3.2-7.48,8.78-.73,20.87-12.02,15.4,4.07,20.04-1.77,26.09-15.34,7.15,19.23,29.33,8.45,39.1-2.53,8.99,9.11,22,7.23,31.58.21l4.5,2.35Z"/>
    <path d="M316.17,144.08l-4.5-2.35c-9.58,7.02-22.59,8.9-31.58-.21-9.76,10.98-31.96,21.76-39.1,2.53-6.02,13.53-10.75,19.42-26.09,15.34-12.05,11.26-17.75,4.58-20.87,12.02-9.67,17.5-13.26,38.73-36.96,42.01-20.98,2.91-31.92-11.57-34.77-30.43-.11-.73.08-4.87-1.44-2.93-5.14,13.33-25.35,22.65-32.25,5.55-.99-2.03-.48-5.6-2.19-6.6-22.22,59.69-108.85,39.91-71.63-24.25,3.18-7,6.81-14.4,10.6-20.99-3.64-14.8,2.98-28.41,9.76-41.24,12.38-34.46,43.03-46.06,77.65-40.61,7.02,2.15,12.17.57,17.93-3.63,10.28-4.67,24.58-.9,20.3,12.79-2.73,9.64-10.25,18.98-13.09,28.6,13.24-16.87,27.87-43.71,49.2-50.49,10.91-1.18,11.14,10.04,6.82,17.18-5.97,14.7-17.65,30.51-20.16,45.22,8.29-14.62,22.58-28.38,40.35-28.14,9.27-2.08,22.2-11.43,28.4.17,1.65-3.54,4.01-6.78,7.39-8.72.59-.88,1.53-5.43,2.05-6.94,17.7-45.61,39.33-64.83,88.21-43.41,10.48,5.36,13.62,9,23.15-.06,24.09-15.5,61.41,5.44,43.07,34.54-.87,1.96,4.8.74,5.98,1.03,24.29.5,12.14,16.42,5.48,29.84-5.66,11.95-12.99,22.95-19.31,34.52,32.51,13.24,49.62,34.76,27.97,67.35-6.79,23.67-28.7,30.8-49.21,18.06-16.41-9.96,10.94-23.4-4.33-35.3-7.43,8.63-13.64,19.34-25.47,23.15-37.31,12.23-49.96-12.19-31.36-43.59ZM235.29,74.4c-6.21-.46-15.44,2.25-18.68,8.26-19.87-10.05-39.72,20.68-42.28,37.71-4.02,22.95,15.54,25.35,29.64,11.75,4.48,6.15,13.67,1.43,18.12-2.57,2.31-1.58,5.86-8.76,7.75-3.88,12.92,8.73,15.25-5.94,19.07-15.39,3.95-9.49,9.39-22.27,17.71-28.63,1.77-1.98,7-3.28,5.43,1.03-3.03,9.5-20.55,31.51-7.03,39.13,12.67,2.86,22.02-10.49,29.56-18.42,4.42,17.81,21.19,12.89,30.81,2.68.69-.05,2.4,3.33,3.1,4.06,8.3,6.83,20.28-5.51,25.39-10.62.77-.17,1.21,3.18,1.48,3.95,3.32,9.77,14.12,7.2,21.17,3.82-1.88,4.27-3.8,9.41-9.44,8.55-15.43-.39-35.05,5.3-39.87,21.75-6.5,22.98,19.83,24.27,34.3,16.44,10.21-5.52,16.02-15.29,22.27-24.61,1.19-.54,4.71,2.55,5.81,3.25,10.27,8.31,9.18,22.48,1.54,32.09-.56,1.79,1.28,2.66,2.5,3.48,49.39,22.43,49.01-38.79-3.57-49.48l-.84-1.25c9.62-20.29,20.69-39.84,32.1-59.16-20.06-7.58-21.17,4.42-29.36,19.44-2.5,4.82-4.52,11.18-9.29,14.27-5.84,4.36-10.77-.89-7.82-7.04,3.27-9.45,10.8-18.58,15.72-27.26,1.98-5.22-13.91-3.19-16.3-2.58-10.34,9.44-12.92,30.78-25.65,38.05-13.12,4.1-3.25-12.83-.53-17.88,3.87-7.74,8.55-17.16,13.16-24.38,2.32-5.78,8.44-2.48,12.89-1.23,10.65,2.53,25.16,1.61,29.8-10.19,7.59-25.75-30.85-30.75-43.85-14.33-2.38,2.27-2.88,4.98-6.83,3.2-22.01-12.42-50.38-25.39-73.11-7.08-17.38,13.21-14.8,41.68,11.69,33.76,1.52-.55,1.32-3.35,1.69-4.78,7.36-20.9,39.14-15.77,54.53-8.14l-9.08,17.36c-.63.4-2.02-1.08-2.72-1.44-12.36-6.51-28.69,8.98-34.52,18.83-4.97,8.4-6.17,19.56-15.29,24.84-14.85,5.44.12-17.53,2.26-22.59,1.69-3.85,4.34-11.22-.03-14.14-7.81-4.64-16.96,5.57-22.58,9.65-.4.03-.46.05-.37-.36,3.4-6.7,4.41-7.71-3.98-6.83-22.82,4.48-18.66,39.82-38.39,47.85-11.17-1.41,13.35-35.93,11.92-40.93ZM189.77,45.74c-19.04-1.11-56.65,62.2-63.48,79.66l-.64-.17c-.5-17.92,5.04-39.94,10.7-56.71,1.75-1.77,4.34-2.7,6.26-5,3.84-4.59,4.86-11.57-3.11-11.13-18.43,4.27-5.41,9.82-34.44,4.92-87.04-6.66-68.6,93.39-22.86,52.48,3.09-4.84.59-4.71-1.49-8.71-10.2-22.29,13.26-36.81,33.28-29.79l-.05.85c-17.83,19.59-27.03,65.49-46.29,76.69-9.56,2.7-14.01-5.91-6.86-12.04,1.54-1.31,4.95-2.49,5.96-3.62,1.56-1.75-1-4.58-2.33-5.71-6.42-5.44-18.3-2.43-24.86,1.56-31.52,21.48-9,65.75,27.05,51.13,23.37-9.3,33.71-46.87,42.17-68.39,2.48-6.31,4.93-13.13,8.72-18.72l.32.84c-2.89,12.13-27.38,79.82,3.41,66.33,7.19-4.97,13.91-25.24,17.58-33.69,6.52-13.58,12.04-29.61,21.65-41l.21.96c-61.95,112.33,41.16,113.79,29.84,61.75-30.27,18.22-33.42-20.15-25.95-40.49,5.6-20,15.9-39.18,25.42-57.43.58-1.45,1.19-3.34-.2-4.57Z"/>
    <path class="cls-2" d="M235.29,74.4c1.41,5.04-23.08,39.5-11.92,40.93,19.74-8.04,15.57-43.37,38.39-47.85,8.42-.87,7.37.12,3.98,6.83-.09.41-.04.39.37.36,5.61-4.08,14.78-14.29,22.58-9.65,4.37,2.92,1.72,10.29.03,14.14-2.12,5.06-17.13,28.03-2.26,22.59,9.13-5.28,10.32-16.44,15.29-24.84,5.83-9.85,22.16-25.34,34.52-18.83.7.37,2.09,1.85,2.72,1.44l9.08-17.36c-15.41-7.63-47.15-12.75-54.53,8.14-.37,1.43-.17,4.23-1.69,4.78-26.36,7.94-29.17-20.52-11.69-33.76,22.73-18.31,51.09-5.34,73.1,7.08,3.95,1.78,4.45-.93,6.83-3.2,12.99-16.41,51.46-11.42,43.85,14.34-4.64,11.8-19.15,12.73-29.8,10.19-4.46-1.25-10.55-4.55-12.89,1.23-4.62,7.22-9.29,16.64-13.16,24.38-2.71,5.05-12.59,21.99.54,17.88,12.73-7.29,15.3-28.59,25.65-38.05,2.33-.64,18.4-2.58,16.3,2.58-3.37,7.89-22.09,27.75-14.6,35.2,2.57,1.43,4.44.58,6.7-.89,9.33-7.54,12.83-27,21.39-34.66,4.52-2.23,12.79-1.04,17.25.94-11.41,19.31-22.48,38.87-32.1,59.16l.84,1.25c52.58,10.68,52.97,71.91,3.57,49.48-1.21-.83-3.06-1.69-2.5-3.49,7.63-9.62,8.72-23.78-1.55-32.09-1.11-.7-4.62-3.78-5.81-3.25-6.25,9.33-12.06,19.09-22.27,24.61-14.47,7.83-40.8,6.55-34.3-16.44,4.82-16.45,24.45-22.14,39.87-21.75,5.65.87,7.56-4.3,9.44-8.55-7.06,3.38-17.83,5.95-21.17-3.82-.27-.77-.71-4.12-1.48-3.95-5.12,5.11-17.09,17.45-25.39,10.62-.7-.72-2.41-4.11-3.1-4.06-9.59,10.21-26.43,15.11-30.81-2.68-7.51,7.92-16.9,21.28-29.56,18.41-13.51-7.65,3.97-29.59,7.03-39.13,1.55-4.28-3.64-3.04-5.43-1.03-8.33,6.36-13.76,19.14-17.71,28.63-3.8,9.44-6.18,24.12-19.07,15.39-1.79-4.93-5.53,2.37-7.75,3.88-4.44,3.99-13.66,8.72-18.12,2.57-14.09,13.59-33.65,11.22-29.64-11.75,2.55-17.03,22.41-47.75,42.28-37.71,3.23-6.01,12.47-8.73,18.68-8.26ZM390.36,38c4.07-3.86,1.6-9.98-3.86-10.46-4.8-.43-8.83,2.07-12.18,5.17-5.76,5.32-3.49,4.6,2.42,6.66,4.23,1.25,10.14,1.94,13.62-1.37ZM320.26,97.09c2.8-2.54,10.03-18.96,11.96-23.38,1.15-2.31,2.26-4.09-1.38-4.25-12.48-1.09-29.8,39.19-10.58,27.63ZM204.77,95.01c-5.1,3.62-8.84,7.85-11.34,13.65-2.37,4.69-5.63,19.41,4.17,14.27,6.04-5.9,11.27-21.64,13.98-29.21-1.83-1.65-5.32-.42-6.81,1.29ZM365.39,124.63c-6.86-.75-20.77-.88-22.45,8.21-.43,3.51,3.26,5,6.21,4.66,6.62-.77,14.35-6.38,16.24-12.87Z"/>
    <path class="cls-2" d="M189.77,45.74c1.39,1.23.78,3.12.2,4.57-9.52,18.25-19.82,37.44-25.42,57.43-7.46,20.29-4.32,58.75,25.95,40.49,11.24,52.16-91.77,50.41-29.84-61.75l-.21-.96c-9.61,11.39-15.14,27.41-21.66,41-3.67,8.44-10.39,28.72-17.58,33.69-30.8,13.47-6.31-54.14-3.41-66.33l-.32-.84c-3.8,5.59-6.24,12.41-8.72,18.72-8.45,21.52-18.79,59.08-42.17,68.39-36.03,14.6-58.59-29.63-27.05-51.13,6.56-3.99,18.44-6.99,24.86-1.56,1.33,1.13,3.89,3.96,2.33,5.71-1,1.13-4.42,2.31-5.96,3.62-7.15,6.12-2.7,14.73,6.86,12.03,19.21-11.13,28.52-57.19,46.29-76.69l.05-.85c-20.02-7.03-43.49,7.51-33.28,29.79,2.08,4,4.57,3.87,1.49,8.71-45.76,40.92-64.16-59.15,22.86-52.48,29,4.9,16.03-.65,34.44-4.92,7.97-.44,6.95,6.54,3.11,11.13-1.92,2.3-4.51,3.23-6.26,5-5.66,16.78-11.19,38.78-10.7,56.71l.64.17c6.71-17.26,44.47-80.83,63.48-79.66Z"/>
    <path d="M320.26,97.09c-19.24,11.56-1.87-28.75,10.58-27.63,3.62.18,2.55,1.9,1.38,4.25-1.93,4.42-9.16,20.84-11.96,23.38Z"/>
    <path d="M204.77,95.01c1.48-1.71,4.99-2.95,6.81-1.29-2.72,7.58-7.93,23.29-13.98,29.21-9.8,5.13-6.55-9.57-4.17-14.27,2.5-5.8,6.25-10.02,11.34-13.65Z"/>
    <path d="M390.36,38c-3.49,3.31-9.39,2.62-13.62,1.37-5.9-2.07-8.19-1.34-2.42-6.66,3.35-3.1,7.38-5.59,12.18-5.17,5.47.49,7.93,6.6,3.86,10.46Z"/>
    <path d="M365.39,124.63c-1.89,6.49-9.62,12.1-16.24,12.87-2.95.34-6.64-1.15-6.21-4.65,1.69-9.09,15.6-8.96,22.45-8.21Z"/>
  </g>
</svg>