<svg xmlns="http://www.w3.org/2000/svg" xmlns:xlink="http://www.w3.org/1999/xlink" width="288" zoomAndPan="magnify" viewBox="0 0 216 170.249993" height="227" preserveAspectRatio="xMidYMid meet" version="1.0"><defs><clipPath id="97490d9445"><path d="M 0.472656 0 L 214.78125 0 L 214.78125 168.757812 L 0.472656 168.757812 Z M 0.472656 0 " clip-rule="nonzero"/></clipPath><clipPath id="7a26ea3678"><path d="M 0.472656 0 L 214.78125 0 L 214.78125 168.757812 L 0.472656 168.757812 Z M 0.472656 0 " clip-rule="nonzero"/></clipPath></defs><g clip-path="url(#97490d9445)"><path fill="#000000" d="M 213.507812 122.605469 C 211.800781 119.949219 208.867188 116.035156 204.234375 112.613281 C 191.738281 103.390625 182.332031 109.1875 176.148438 103.074219 C 163.15625 90.21875 186.363281 46.128906 190.878906 35.824219 C 192.582031 31.9375 194.660156 28.21875 197.035156 24.675781 C 181.800781 -9.59375 167.371094 -5.636719 144.683594 20.992188 C 135.828125 11.433594 134.496094 -0.695312 118.1875 0.496094 C 112.339844 0.925781 106.871094 5.585938 103.585938 5.824219 C 96.824219 6.320312 83.398438 2.089844 75.132812 1.78125 C 32.984375 -2.113281 -5.058594 37.003906 23.128906 76.183594 C -45.367188 117.554688 60.007812 223.027344 99.628906 134.117188 C 107.058594 149.136719 124.582031 155.8125 135.683594 140.476562 C 136.195312 140.011719 136.082031 139.8125 137.0625 140.058594 C 139.511719 144.761719 145.390625 154.4375 156.898438 160.832031 C 159.027344 162.011719 185.046875 175.960938 202.9375 160.832031 C 213.144531 152.195312 217 137.21875 213.511719 122.609375 Z M 213.507812 122.605469 " fill-opacity="1" fill-rule="nonzero"/></g><path fill="#000000" d="M 146.675781 140.714844 C 125.703125 117.410156 136.363281 75.453125 148.335938 50.101562 L 147.671875 48.785156 C 143.679688 56.425781 139.851562 64.425781 136.582031 72.433594 C 131.769531 84.191406 125.492188 110.933594 118.796875 119.5 C 112.851562 127.121094 102.566406 126.484375 98.507812 117.363281 C 90.945312 100.34375 99.921875 70.992188 101.871094 52.988281 C 101.953125 52.265625 102.46875 50.609375 101.296875 50.769531 C 88.324219 82.902344 86.824219 147.738281 38.097656 143.933594 C 15.644531 142.179688 3.554688 122.054688 10.027344 100.894531 C 15.15625 84.136719 42.289062 70.84375 52.710938 89.464844 C 51.429688 91.914062 48.519531 92.199219 46.617188 93.757812 C 37.328125 101.394531 46.804688 111.804688 57.109375 105.554688 C 66.109375 100.101562 72.890625 73.921875 76.9375 63.832031 C 81.128906 53.367188 85.714844 42.382812 91.476562 32.703125 C 92.472656 31.03125 95.535156 27.632812 95.980469 26.613281 C 96.488281 25.445312 95.597656 25.738281 94.980469 25.644531 C 85.042969 24.089844 72.390625 21.550781 64.480469 29.566406 C 57.363281 36.785156 57.9375 48.628906 63.226562 56.671875 C 65.609375 60.300781 68.683594 59.152344 66.484375 64.648438 C 58.707031 84.015625 22.34375 78.304688 21.113281 50.417969 C 19.703125 18.46875 52.664062 8.023438 79.078125 9.773438 C 86.867188 10.285156 98.773438 14.253906 105.621094 13.796875 C 108.910156 13.578125 112.40625 9.324219 117.023438 8.601562 C 124.109375 7.484375 131.039062 9.132812 128.972656 17.894531 C 127.921875 22.339844 120.929688 24.378906 119.96875 26.101562 C 118.980469 27.890625 117.699219 39.605469 117.292969 42.609375 C 115.78125 53.777344 115.507812 65.03125 114.488281 76.238281 L 115.851562 87.144531 C 118.582031 76.429688 123.40625 65.695312 128.769531 56.050781 C 135.535156 43.902344 157.285156 13.097656 170.210938 8.789062 C 188.039062 2.851562 171.96875 27.429688 169.230469 34.265625 C 160.730469 55.476562 139.335938 120.617188 179.84375 122.214844 C 185.332031 122.429688 186.871094 120.148438 190.722656 119.175781 C 193.152344 118.554688 194.503906 125.257812 194.703125 127.183594 C 197.511719 154.910156 162.28125 158.09375 146.667969 140.734375 Z M 146.675781 140.714844 " fill-opacity="1" fill-rule="nonzero"/><path fill="#8f78c7" d="M 148.335938 50.101562 C 149.222656 48.222656 150.65625 46.246094 150.976562 44.152344 C 149.660156 45.121094 148.429688 47.332031 147.667969 48.785156 C 143.671875 56.429688 139.84375 64.429688 136.570312 72.433594 C 131.765625 84.195312 125.484375 110.9375 118.792969 119.503906 C 112.847656 127.121094 102.558594 126.492188 98.503906 117.371094 C 90.9375 100.351562 99.914062 70.992188 101.863281 53 C 101.941406 52.277344 102.457031 50.617188 101.289062 50.777344 C 88.3125 82.910156 86.820312 147.75 38.089844 143.945312 C 15.632812 142.191406 3.550781 122.058594 10.023438 100.902344 C 15.15625 84.140625 42.28125 70.84375 52.710938 89.476562 C 51.429688 91.921875 48.515625 92.207031 46.613281 93.765625 C 37.324219 101.398438 46.796875 111.8125 57.105469 105.5625 C 66.105469 100.109375 72.886719 73.9375 76.933594 63.839844 C 81.128906 53.378906 85.707031 42.394531 91.46875 32.714844 C 92.460938 31.046875 95.53125 27.648438 95.972656 26.621094 C 96.480469 25.453125 95.585938 25.753906 94.980469 25.660156 C 85.039062 24.101562 72.390625 21.5625 64.472656 29.582031 C 57.351562 36.796875 57.933594 48.640625 63.222656 56.683594 C 65.609375 60.316406 68.683594 59.167969 66.476562 64.664062 C 58.703125 84.027344 22.339844 78.316406 21.113281 50.433594 C 19.703125 18.484375 52.660156 8.042969 79.074219 9.78125 C 86.867188 10.296875 98.765625 14.261719 105.617188 13.804688 C 108.910156 13.582031 112.40625 9.335938 117.019531 8.609375 C 124.109375 7.496094 131.03125 9.140625 128.972656 17.902344 C 127.925781 22.351562 120.929688 24.382812 119.96875 26.105469 C 118.976562 27.890625 117.699219 39.609375 117.292969 42.617188 C 115.785156 53.785156 115.507812 65.03125 114.488281 76.246094 L 115.855469 87.15625 C 118.59375 76.4375 123.410156 65.699219 128.773438 56.0625 C 135.542969 43.910156 157.292969 13.105469 170.21875 8.796875 C 188.042969 2.855469 171.96875 27.433594 169.234375 34.269531 C 160.730469 55.480469 139.347656 120.617188 179.847656 122.222656 C 185.335938 122.441406 186.875 120.15625 190.730469 119.179688 C 193.15625 118.566406 194.519531 125.269531 194.710938 127.183594 C 197.519531 154.910156 162.296875 158.09375 146.675781 140.738281 C 125.703125 117.441406 136.367188 75.476562 148.339844 50.121094 Z M 148.335938 50.101562 " fill-opacity="1" fill-rule="nonzero"/><path fill="#4e6300" d="M 148.335938 50.101562 L 147.671875 48.777344 C 148.429688 47.332031 149.664062 45.121094 150.980469 44.148438 C 150.660156 46.242188 149.226562 48.214844 148.339844 50.097656 Z M 148.335938 50.101562 " fill-opacity="1" fill-rule="nonzero"/><g clip-path="url(#7a26ea3678)"><path fill="#000000" d="M 213.507812 122.605469 C 211.800781 119.949219 208.867188 116.035156 204.234375 112.613281 C 191.738281 103.390625 182.332031 109.1875 176.148438 103.074219 C 163.15625 90.21875 186.363281 46.128906 190.878906 35.824219 C 192.582031 31.9375 194.660156 28.21875 197.035156 24.675781 C 181.800781 -9.59375 167.371094 -5.636719 144.683594 20.992188 C 135.828125 11.433594 134.496094 -0.695312 118.1875 0.496094 C 112.339844 0.925781 106.871094 5.585938 103.585938 5.824219 C 96.824219 6.320312 83.398438 2.089844 75.132812 1.78125 C 32.984375 -2.113281 -5.058594 37.003906 23.128906 76.183594 C -45.367188 117.554688 60.007812 223.027344 99.628906 134.117188 C 107.058594 149.136719 124.582031 155.8125 135.683594 140.476562 C 136.195312 140.011719 136.082031 139.8125 137.0625 140.058594 C 139.511719 144.761719 145.390625 154.4375 156.898438 160.832031 C 159.027344 162.011719 185.046875 175.960938 202.9375 160.832031 C 213.144531 152.195312 217 137.21875 213.511719 122.609375 Z M 213.507812 122.605469 " fill-opacity="1" fill-rule="nonzero"/></g><path fill="#000000" d="M 146.675781 140.714844 C 125.703125 117.410156 136.363281 75.453125 148.335938 50.101562 L 147.671875 48.785156 C 143.679688 56.425781 139.851562 64.425781 136.582031 72.433594 C 131.769531 84.191406 125.492188 110.933594 118.796875 119.5 C 112.851562 127.121094 102.566406 126.484375 98.507812 117.363281 C 90.945312 100.34375 99.921875 70.992188 101.871094 52.988281 C 101.953125 52.265625 102.46875 50.609375 101.296875 50.769531 C 88.324219 82.902344 86.824219 147.738281 38.097656 143.933594 C 15.644531 142.179688 3.554688 122.054688 10.027344 100.894531 C 15.15625 84.136719 42.289062 70.84375 52.710938 89.464844 C 51.429688 91.914062 48.519531 92.199219 46.617188 93.757812 C 37.328125 101.394531 46.804688 111.804688 57.109375 105.554688 C 66.109375 100.101562 72.890625 73.921875 76.9375 63.832031 C 81.128906 53.367188 85.714844 42.382812 91.476562 32.703125 C 92.472656 31.03125 95.535156 27.632812 95.980469 26.613281 C 96.488281 25.445312 95.597656 25.738281 94.980469 25.644531 C 85.042969 24.089844 72.390625 21.550781 64.480469 29.566406 C 57.363281 36.785156 57.9375 48.628906 63.226562 56.671875 C 65.609375 60.300781 68.683594 59.152344 66.484375 64.648438 C 58.707031 84.015625 22.34375 78.304688 21.113281 50.417969 C 19.703125 18.46875 52.664062 8.023438 79.078125 9.773438 C 86.867188 10.285156 98.773438 14.253906 105.621094 13.796875 C 108.910156 13.578125 112.40625 9.324219 117.023438 8.601562 C 124.109375 7.484375 131.039062 9.132812 128.972656 17.894531 C 127.921875 22.339844 120.929688 24.378906 119.96875 26.101562 C 118.980469 27.890625 117.699219 39.605469 117.292969 42.609375 C 115.78125 53.777344 115.507812 65.03125 114.488281 76.238281 L 115.851562 87.144531 C 118.582031 76.429688 123.40625 65.695312 128.769531 56.050781 C 135.535156 43.902344 157.285156 13.097656 170.210938 8.789062 C 188.039062 2.851562 171.96875 27.429688 169.230469 34.265625 C 160.730469 55.476562 139.335938 120.617188 179.84375 122.214844 C 185.332031 122.429688 186.871094 120.148438 190.722656 119.175781 C 193.152344 118.554688 194.503906 125.257812 194.703125 127.183594 C 197.511719 154.910156 162.28125 158.09375 146.667969 140.734375 Z M 146.675781 140.714844 " fill-opacity="1" fill-rule="nonzero"/><path fill="#8f78c7" d="M 148.335938 50.101562 C 149.222656 48.222656 150.65625 46.246094 150.976562 44.152344 C 149.660156 45.121094 148.429688 47.332031 147.667969 48.785156 C 143.671875 56.429688 139.84375 64.429688 136.570312 72.433594 C 131.765625 84.195312 125.484375 110.9375 118.792969 119.503906 C 112.847656 127.121094 102.558594 126.492188 98.503906 117.371094 C 90.9375 100.351562 99.914062 70.992188 101.863281 53 C 101.941406 52.277344 102.457031 50.617188 101.289062 50.777344 C 88.3125 82.910156 86.820312 147.75 38.089844 143.945312 C 15.632812 142.191406 3.550781 122.058594 10.023438 100.902344 C 15.15625 84.140625 42.28125 70.84375 52.710938 89.476562 C 51.429688 91.921875 48.515625 92.207031 46.613281 93.765625 C 37.324219 101.398438 46.796875 111.8125 57.105469 105.5625 C 66.105469 100.109375 72.886719 73.9375 76.933594 63.839844 C 81.128906 53.378906 85.707031 42.394531 91.46875 32.714844 C 92.460938 31.046875 95.53125 27.648438 95.972656 26.621094 C 96.480469 25.453125 95.585938 25.753906 94.980469 25.660156 C 85.039062 24.101562 72.390625 21.5625 64.472656 29.582031 C 57.351562 36.796875 57.933594 48.640625 63.222656 56.683594 C 65.609375 60.316406 68.683594 59.167969 66.476562 64.664062 C 58.703125 84.027344 22.339844 78.316406 21.113281 50.433594 C 19.703125 18.484375 52.660156 8.042969 79.074219 9.78125 C 86.867188 10.296875 98.765625 14.261719 105.617188 13.804688 C 108.910156 13.582031 112.40625 9.335938 117.019531 8.609375 C 124.109375 7.496094 131.03125 9.140625 128.972656 17.902344 C 127.925781 22.351562 120.929688 24.382812 119.96875 26.105469 C 118.976562 27.890625 117.699219 39.609375 117.292969 42.617188 C 115.785156 53.785156 115.507812 65.03125 114.488281 76.246094 L 115.855469 87.15625 C 118.59375 76.4375 123.410156 65.699219 128.773438 56.0625 C 135.542969 43.910156 157.292969 13.105469 170.21875 8.796875 C 188.042969 2.855469 171.96875 27.433594 169.234375 34.269531 C 160.730469 55.480469 139.347656 120.617188 179.847656 122.222656 C 185.335938 122.441406 186.875 120.15625 190.730469 119.179688 C 193.15625 118.566406 194.519531 125.269531 194.710938 127.183594 C 197.519531 154.910156 162.296875 158.09375 146.675781 140.738281 C 125.703125 117.441406 136.367188 75.476562 148.339844 50.121094 Z M 148.335938 50.101562 " fill-opacity="1" fill-rule="nonzero"/><path fill="#4e6300" d="M 148.335938 50.101562 L 147.671875 48.777344 C 148.429688 47.332031 149.664062 45.121094 150.980469 44.148438 C 150.660156 46.242188 149.226562 48.214844 148.339844 50.097656 Z M 148.335938 50.101562 " fill-opacity="1" fill-rule="nonzero"/></svg>