<?xml version="1.0" encoding="UTF-8"?>
<svg id="Layer_1" xmlns="http://www.w3.org/2000/svg" version="1.1" viewBox="0 0 178 47">
  <!-- Generator: Adobe Illustrator 29.6.0, SVG Export Plug-In . SVG Version: 2.1.1 Build 207)  -->
  <defs>
    <style>
      .st0 {
        fill: #5cffc1;
      }
    </style>
  </defs>
  <path class="st0" d="M77.33,20.18h-7.59l-2.77,19.8h-7.05l2.77-19.8h-7.59l.86-5.95h22.21l-.86,5.95h0Z"/>
  <path class="st0" d="M96.67,14.22h7.04l-3.63,25.76h-7.04l1.44-10.11h-9.1l-1.44,10.11h-7.04l3.63-25.76h7.05l-1.4,9.72h9.13l1.36-9.72Z"/>
  <path class="st0" d="M111.83,31.45l-1.18,8.53h-7.05l3.63-25.76h10.64c6,0,9.67,3.02,9.67,7.89,0,3.88-2.3,7.07-6.04,8.5l4.46,9.37h-7.58l-3.78-8.53h-2.76,0ZM116.9,25.89c2.19,0,3.74-1.33,3.74-3.19,0-1.62-1.22-2.58-3.38-2.58h-3.85l-.79,5.77h4.28Z"/>
  <path class="st0" d="M138.64,14.22l-3.63,25.76h-7.05l3.63-25.76h7.05Z"/>
  <path class="st0" d="M138.53,39.98l3.63-25.76h7.05l-2.8,19.8h11.1l-.83,5.95h-18.15Z"/>
  <path class="st0" d="M159.02,39.98l3.63-25.76h7.05l-2.8,19.8h11.11l-.83,5.95h-18.15Z"/>
  <path class="st0" d="M34.24,16.95l12.33-7.1L29.45,0,0,16.95l17.12,9.85V7.1s17.12,9.85,17.12,9.85Z"/>
  <path class="st0" d="M17.12,26.8h0v10.34l17.12,9.86v-30.05l-17.12,9.85Z"/>
</svg>